<?xml version="1.0" encoding="UTF-8"?>
<svg id="a" height="40" width="40" xmlns="http://www.w3.org/2000/svg" viewBox="0 0 422.25 265.86">
  <path d="m369.7,8c27.88,18.21,44.55,41.31,44.55,66.46s-16.67,48.26-44.55,66.46" style="fill: none; stroke: #c9caca; stroke-linecap: round; stroke-miterlimit: 133.33; stroke-width: 16px;"/>
  <path d="m52.55,8C24.67,26.21,8,49.31,8,74.46s16.67,48.26,44.55,66.46" style="fill: none; stroke: #c9caca; stroke-linecap: round; stroke-miterlimit: 133.33; stroke-width: 16px;"/>
  <path d="m140.72,84.41c-.55,2.12-.28,4.12.83,5.99,1.1,1.91,2.72,3.14,4.84,3.7,2.12.55,4.14.3,6.06-.76,1.1-.64,2.8-1.91,5.1-3.82,2.29-1.91,4.4-3.85,6.31-5.8-.81,2.68-1.44,5.46-1.91,8.35-.47,2.89-.72,4.99-.76,6.31,0,2.21.79,4.1,2.36,5.67s3.44,2.34,5.61,2.29c2.17-.04,4.04-.81,5.61-2.29,1.57-1.49,2.36-3.38,2.36-5.67,0-1.27-.25-3.38-.76-6.31-.51-2.93-1.13-5.72-1.85-8.35,1.91,2,4.02,3.95,6.31,5.86,2.29,1.91,3.97,3.17,5.04,3.76,1.91,1.1,3.93,1.36,6.06.76s3.74-1.83,4.84-3.7,1.38-3.87.83-5.99-1.81-3.76-3.76-4.91c-1.15-.64-3.1-1.47-5.86-2.49-2.76-1.02-5.46-1.87-8.09-2.55,2.68-.68,5.4-1.53,8.16-2.55,2.76-1.02,4.7-1.85,5.8-2.49,1.91-1.1,3.17-2.72,3.76-4.84.59-2.12.32-4.14-.83-6.06-1.1-1.91-2.72-3.14-4.84-3.7s-4.14-.3-6.06.76c-1.1.68-2.78,1.95-5.04,3.82-2.25,1.87-4.36,3.8-6.31,5.8.76-2.63,1.38-5.42,1.85-8.35.47-2.93.72-5.04.76-6.31,0-2.17-.79-4.04-2.36-5.61-1.57-1.57-3.44-2.36-5.61-2.36s-4.04.79-5.61,2.36c-1.57,1.57-2.36,3.44-2.36,5.61,0,1.32.25,3.42.76,6.31.51,2.89,1.15,5.67,1.91,8.35-1.91-1.95-4.02-3.87-6.31-5.74-2.29-1.87-3.99-3.17-5.1-3.89-1.91-1.06-3.93-1.32-6.06-.76-2.12.55-3.74,1.78-4.84,3.7-1.1,1.91-1.38,3.93-.83,6.06.55,2.12,1.81,3.74,3.76,4.84,1.1.64,3.04,1.47,5.8,2.49s5.5,1.87,8.22,2.55c-2.68.68-5.4,1.53-8.16,2.55-2.76,1.02-4.72,1.85-5.86,2.49-1.91,1.1-3.17,2.74-3.76,4.91h0Z" style="fill: #c9caca; stroke-width: 0px;"/>
  <path d="m62.3,84.41c-.55,2.12-.28,4.12.83,5.99,1.1,1.91,2.72,3.14,4.84,3.7,2.12.55,4.14.3,6.06-.76,1.1-.64,2.8-1.91,5.1-3.82,2.29-1.91,4.4-3.85,6.31-5.8-.81,2.68-1.44,5.46-1.91,8.35-.47,2.89-.72,4.99-.76,6.31,0,2.21.79,4.1,2.36,5.67s3.44,2.34,5.61,2.29c2.17-.04,4.04-.81,5.61-2.29,1.57-1.49,2.36-3.38,2.36-5.67,0-1.27-.25-3.38-.76-6.31-.51-2.93-1.13-5.72-1.85-8.35,1.91,2,4.02,3.95,6.31,5.86,2.29,1.91,3.97,3.17,5.04,3.76,1.91,1.1,3.93,1.36,6.06.76s3.74-1.83,4.84-3.7,1.38-3.87.83-5.99-1.81-3.76-3.76-4.91c-1.15-.64-3.1-1.47-5.86-2.49-2.76-1.02-5.46-1.87-8.09-2.55,2.68-.68,5.4-1.53,8.16-2.55,2.76-1.02,4.7-1.85,5.8-2.49,1.91-1.1,3.17-2.72,3.76-4.84.59-2.12.32-4.14-.83-6.06-1.1-1.91-2.72-3.14-4.84-3.7s-4.14-.3-6.06.76c-1.1.68-2.78,1.95-5.04,3.82-2.25,1.87-4.36,3.8-6.31,5.8.76-2.63,1.38-5.42,1.85-8.35.47-2.93.72-5.04.76-6.31,0-2.17-.79-4.04-2.36-5.61-1.57-1.57-3.44-2.36-5.61-2.36s-4.04.79-5.61,2.36c-1.57,1.57-2.36,3.44-2.36,5.61,0,1.32.25,3.42.76,6.31.51,2.89,1.15,5.67,1.91,8.35-1.91-1.95-4.02-3.87-6.31-5.74-2.29-1.87-3.99-3.17-5.1-3.89-1.91-1.06-3.93-1.32-6.06-.76-2.12.55-3.74,1.78-4.84,3.7-1.1,1.91-1.38,3.93-.83,6.06.55,2.12,1.81,3.74,3.76,4.84,1.1.64,3.04,1.47,5.8,2.49s5.5,1.87,8.22,2.55c-2.68.68-5.4,1.53-8.16,2.55-2.76,1.02-4.72,1.85-5.86,2.49-1.91,1.1-3.17,2.74-3.76,4.91h0Z" style="fill: #c9caca; stroke-width: 0px;"/>
  <g id="b">
    <path id="c" d="m218.76,132.66v-7.97c0-1.31,0-1.97-.29-2.47-.25-.44-.66-.8-1.15-1.02-.56-.26-1.3-.26-2.78-.26h-4.76c-1.47,0-2.21,0-2.78.26-.5.22-.9.58-1.15,1.02-.29.5-.29,1.16-.29,2.47v4.22c0,1.31,0,1.97.29,2.47.25.44.66.8,1.15,1.02.56.26,1.3.26,2.78.26h8.97Zm0,0v4.69c0,3.88-3.54,7.03-7.91,7.03" style="fill: none; stroke: #c9caca; stroke-linecap: round; stroke-linejoin: round; stroke-width: 5px;"/>
  </g>
  <g>
    <polygon points="303.01 113.61 308.61 108.02 303.01 102.43 342.98 62.46 342.98 36.13 338.55 31.7 312.22 31.7 272.25 71.67 266.66 66.07 261.07 71.67 303.01 113.61" style="fill: #dee0e0; stroke: #000; stroke-miterlimit: 10; stroke-width: .25px;"/>
    <polygon points="315.6 89.84 342.98 62.46 342.98 36.13 338.55 31.7 312.22 31.7 284.84 59.08 315.6 89.84" style="fill: #ff7a73; stroke-width: 0px;"/>
    <polygon points="283.44 127.6 289.03 122 283.44 116.41 294.62 105.22 269.46 80.06 258.27 91.24 252.68 85.65 247.08 91.24 283.44 127.6" style="fill: #afafaf; stroke: #000; stroke-miterlimit: 10; stroke-width: .25px;"/>
    <path d="m258.27,71.67l8.39,8.39-8.39,8.39-5.59-5.59-8.39,8.39,39.15,39.15,8.39-8.39-5.59-5.59,8.39-8.39,8.39,8.39,8.39-8.39-5.59-5.59,39.15-39.15v-27.96l11.19-11.19-5.59-5.59-11.19,11.19h-27.96l-39.15,39.15-5.59-5.59-8.39,8.39Zm27.96,50.34l-2.8,2.8-33.56-33.56,2.8-2.8,33.56,33.56Zm-2.8-8.39l-22.37-22.37,8.39-8.39,22.37,22.37-8.39,8.39Zm29.6-79.94h24.69l3.28,3.28v24.69s-4.44,4.44-4.44,4.44l-5.59-5.59-2.8,2.8,5.59,5.59-5.59,5.59-5.59-5.59-2.8,2.8,5.59,5.59-5.59,5.59-5.59-5.59-2.8,2.8,5.59,5.59-5.59,5.59-5.59-5.59-2.8,2.8,5.59,5.59-5.59,5.59-27.96-27.96,37.99-37.99Zm-46.38,35.2l39.15,39.15-2.78,2.78-39.15-39.15,2.78-2.78Z" style="fill: #efefef; stroke-width: 0px;"/>
  </g>
</svg>